<svg width="210" height="140" viewBox="0 0 210 140" fill="none" xmlns="http://www.w3.org/2000/svg">
<path d="M175.249 30.1392C174.027 30.8926 173.889 32.5678 173.706 33.9907C173.522 35.4135 172.819 37.1163 171.386 37.1967C170.616 34.7352 169.845 32.2738 169.075 29.8123C168.292 30.0512 167.832 30.8397 167.446 31.562C166.292 30.0413 166.217 27.7894 167.262 26.1921C167.75 25.4482 168.441 24.8622 169.122 24.2908C171.123 22.6122 173.18 20.9265 175.609 19.968C176.3 19.6926 177.017 19.4839 177.714 19.2166C179.897 18.3898 181.926 17.0356 184.246 16.7732C185.277 16.6562 186.372 16.7759 187.241 17.3486C188.081 17.903 188.611 18.8157 189.054 19.7221C192.519 26.8295 192.234 35.1323 191.487 43.0035C191.426 43.6323 191.359 44.2793 191.067 44.8368C190.774 45.3942 190.198 45.8519 189.568 45.8178C186.709 40.2915 187.055 33.5732 184.423 27.9352C184.969 30.0837 185.381 32.2669 185.654 34.4674C185.972 36.986 186.042 39.7503 184.576 41.825C184.401 42.0701 184.195 42.3104 183.91 42.4077C183.041 42.6967 182.449 41.5381 182.27 40.6421C181.526 36.9701 180.783 33.2981 180.044 29.6298C179.923 31.3771 179.803 33.1244 179.687 34.8711C179.557 36.7858 179.398 38.7873 178.383 40.4114C178.165 40.7583 177.787 41.1253 177.405 40.9767C177.097 40.8581 177 40.4766 176.946 40.1511C176.381 36.8152 175.814 33.475 175.249 30.1392Z" fill="#062A5E"/>
<path d="M170.578 27.1686C168.92 28.4759 167.265 29.7828 165.607 31.0944C161.005 34.7243 156.36 38.3989 152.714 42.984C148.124 48.7556 145.09 55.9752 139.098 60.2662C138.4 60.7655 137.597 61.2343 136.746 61.1449C135.496 61.0098 134.718 59.7696 134.123 58.6594C133.058 56.6725 131.975 54.6092 131.792 52.3622C131.67 50.8424 131.969 49.3263 132.351 47.8478C134.445 39.7714 139.019 32.5235 144.418 26.1642C147.521 22.5093 151.071 18.9949 155.567 17.3335C155.65 17.9179 155.347 18.5335 154.842 18.8291C156.754 17.8659 158.667 16.907 160.579 15.9438C163.261 14.5948 166.243 13.2077 169.157 13.9419C169.061 14.1509 168.961 14.3647 168.865 14.5737C172.068 14.0991 175.331 14.0282 178.55 14.3697C178.13 14.3702 177.706 14.3756 177.286 14.3761C180.75 14.5074 184.181 15.4912 187.185 17.2157C180.949 19.0268 175.681 23.1387 170.582 27.1637L170.578 27.1686Z" fill="#02329E"/>
<path d="M147.824 37.1718L145.653 35.5303C145.54 36.5768 145.605 37.6446 145.844 38.6685C145.113 38.5597 144.365 38.5579 143.634 38.659C143.475 39.7201 143.596 40.8201 143.985 41.8164C143.256 41.5541 142.523 41.2924 141.791 41.035C141.562 40.9546 141.315 40.8677 141.077 40.9239C140.525 41.0549 140.411 41.7822 140.422 42.3495C140.463 44.4131 140.649 46.4717 140.968 48.5134C139.978 48.2229 138.987 47.9281 137.997 47.6377C137.943 49.3897 138.306 51.1547 139.049 52.7448C138.37 52.3538 137.601 52.1185 136.82 52.0641C136.891 53.3892 137.183 54.6994 137.679 55.927C136.652 55.7593 135.247 55.823 135.003 56.8336C134.928 57.1405 134.994 57.4559 135.064 57.762C135.864 61.3307 136.967 64.8306 138.365 68.21C138.63 68.8545 138.918 69.5092 139.389 70.0183C139.89 70.5543 140.567 70.8974 141.266 71.1285C144.567 72.2293 148.328 70.9408 150.891 68.5832C153.453 66.2256 154.982 62.9533 156.06 59.6417C157.133 56.3307 157.815 52.8985 159.021 49.632C160.448 45.7602 162.609 42.163 165.356 39.0823C165.892 38.481 166.453 37.8984 166.878 37.2148C167.192 36.716 167.429 36.1699 167.69 35.6427C169.199 32.6309 171.602 30.1842 173.716 27.564C174.503 26.5898 175.293 25.3309 174.832 24.1689C173.293 24.1095 171.746 24.8429 170.815 26.067C170.7 24.9137 170.797 23.7424 171.102 22.6235C169.464 22.2924 167.692 22.6693 166.332 23.6415C164.891 24.6676 163.892 26.3159 162.264 27.0026C162.04 26.0599 161.999 25.0766 162.145 24.1178C160.815 23.9053 159.39 24.6407 158.795 25.8488C158.688 24.6594 157.007 24.1981 155.976 24.8006C154.946 25.4032 154.445 26.5949 154.008 27.7086C153.113 27.1349 151.977 26.5523 151.06 27.088C150.616 27.3453 150.343 27.8171 150.108 28.2755C148.701 31.0207 147.916 34.0854 147.824 37.1676L147.824 37.1718Z" fill="#F2A408"/>
<path d="M142.885 59.0837C142.499 58.1439 141.451 57.5284 141.297 56.5242C141.126 55.4086 142.245 54.4319 143.369 54.325C144.492 54.2137 145.574 54.7113 146.593 55.195C146.193 54.3138 145.789 53.4376 145.389 52.5564C146.208 52.2561 147.1 52.1436 147.969 52.2393C147.883 51.5548 147.792 50.8751 147.702 50.1911C148.703 49.8459 149.791 49.7611 150.836 49.9352C150.439 48.9007 150.042 47.8704 149.648 46.8354C150.593 46.5586 151.581 46.4163 152.57 46.4139C151.999 45.082 151.416 43.6203 151.804 42.2198C152.191 40.8193 154.044 39.8024 155.139 40.7532C155.153 40.1347 155.045 39.5185 154.823 38.9429C155.512 38.7859 156.248 38.8329 156.913 39.077C156.486 38.2911 156.827 37.1808 157.629 36.7734C158.43 36.366 159.527 36.7393 159.909 37.5483C159.669 36.8569 159.774 35.9601 160.405 35.5874C161.031 35.2109 162.048 35.8872 161.738 36.5475C163.137 35.5397 164.76 34.8493 166.452 34.5349C166.861 35.1744 167.014 35.9686 166.868 36.7132C167.234 36.0458 168.384 36.6704 168.376 37.4325C168.367 38.1947 167.756 38.7924 167.265 39.3749C166.216 40.6271 165.588 42.1673 164.974 43.6794C164.214 45.56 163.447 47.4502 163.056 49.4417C162.728 51.1058 162.667 52.8062 162.499 54.4895C162.1 58.564 161.09 62.5537 160.082 66.5213C159.889 67.2805 159.691 68.0623 159.243 68.7093C158.404 69.9306 156.874 70.4519 155.424 70.7794C152 71.5529 148.433 71.671 144.965 71.1248C144.648 71.073 144.317 71.0142 144.05 70.838C143.74 70.6323 143.548 70.2934 143.368 69.9707C142.966 69.2473 142.555 68.49 142.534 67.6659C142.513 66.8419 143.024 65.9375 143.84 65.817C143.344 65.2848 142.82 64.7036 142.725 63.9808C142.629 63.2581 143.2 62.4118 143.919 62.5266C142.801 61.8455 142.327 60.2782 142.881 59.0885L142.885 59.0837Z" fill="#A5200E"/>
<path d="M95.9147 121.746C95.0543 121.929 94.1598 122.051 93.3032 121.848C92.4509 121.645 91.6417 121.056 91.3914 120.218C91.1406 119.375 91.6205 118.325 92.4809 118.142C92.4666 117.926 92.1673 117.876 91.9488 117.912C90.3603 118.183 89.1794 119.915 89.5146 121.496C89.8449 123.072 91.6258 124.186 93.19 123.792C92.0859 124.088 90.9238 124.17 89.7912 124.033C88.7296 123.904 87.5217 123.414 87.2895 122.372C86.8109 123.119 86.7341 124.104 87.0904 124.916C87.4466 125.728 88.2279 126.338 89.0995 126.486C89.6185 126.578 90.1523 126.511 90.6743 126.419C91.5719 126.253 92.4489 125.993 93.2886 125.647C92.8949 126.304 92.2745 126.829 91.5612 127.103C92.9844 127.22 94.4064 126.739 95.6197 125.991C96.833 125.243 97.87 124.241 98.8698 123.223C102.631 119.406 106.128 115.203 108.231 110.279C108.407 109.872 108.576 109.439 108.533 108.994C108.49 108.549 108.184 108.102 107.74 108.053C107.381 109.332 106.748 110.515 106.121 111.683C104.68 114.367 103.212 117.085 101.146 119.323C101.59 118.575 101.882 117.742 101.996 116.879C102.071 116.323 102.063 115.712 101.738 115.25C101.546 114.977 101.264 114.785 100.969 114.634C100.311 114.302 99.5021 114.168 98.8275 114.472C98.153 114.775 97.6976 115.603 97.9681 116.29C98.1966 115.675 99.0246 115.374 99.5944 115.696C100.046 115.949 100.271 116.481 100.357 116.99C100.513 117.95 100.266 118.966 99.6863 119.747C98.8147 120.916 97.338 121.448 95.9109 121.751L95.9147 121.746Z" fill="#1C1924"/>
<path d="M108.674 122.545C107.864 122.717 107.022 122.832 106.215 122.641C105.412 122.449 104.647 121.898 104.411 121.106C104.175 120.313 104.627 119.32 105.437 119.152C105.42 118.949 105.139 118.901 104.937 118.936C103.439 119.19 102.328 120.822 102.643 122.309C102.958 123.796 104.629 124.84 106.104 124.47C105.064 124.75 103.971 124.827 102.9 124.695C101.901 124.576 100.762 124.112 100.546 123.129C100.097 123.833 100.022 124.761 100.359 125.524C100.696 126.286 101.429 126.862 102.252 127.004C102.744 127.09 103.247 127.026 103.735 126.939C104.577 126.784 105.408 126.539 106.198 126.212C105.825 126.832 105.245 127.325 104.568 127.581C105.908 127.692 107.246 127.239 108.39 126.534C109.535 125.83 110.509 124.885 111.451 123.926C114.994 120.329 118.286 116.37 120.273 111.733C120.438 111.349 120.597 110.939 120.557 110.524C120.522 110.109 120.228 109.682 119.811 109.639C119.474 110.845 118.875 111.957 118.284 113.06C116.924 115.589 115.545 118.147 113.598 120.256C114.017 119.552 114.289 118.765 114.401 117.955C114.471 117.43 114.463 116.853 114.159 116.419C113.978 116.162 113.714 115.977 113.434 115.837C112.812 115.522 112.053 115.399 111.416 115.685C110.778 115.972 110.352 116.751 110.609 117.401C110.825 116.823 111.602 116.537 112.139 116.841C112.563 117.08 112.779 117.578 112.857 118.058C113.006 118.962 112.769 119.919 112.223 120.653C111.404 121.754 110.01 122.253 108.669 122.541L108.674 122.545Z" fill="#1C1924"/>
<path d="M57.899 107.499C53.0908 107.074 48.1638 108.063 43.8947 110.313C43.6773 110.428 43.4337 110.576 43.3948 110.822C43.3509 111.064 43.7016 111.312 43.8467 111.11C40.0662 112.449 36.4828 114.345 33.2488 116.722C32.1921 117.499 31.0559 118.718 31.5418 119.934C38.9449 117.009 46.2335 113.801 53.3861 110.312C54.9848 109.533 56.6055 108.72 57.8946 107.499L57.899 107.499Z" fill="#02329E"/>
<path d="M54.6062 111.523C56.3218 111.254 57.9432 110.585 59.5593 109.944C71.7336 105.108 84.4167 101.564 97.3329 99.3821C97.7828 99.3078 98.3654 99.0374 98.2448 98.6021C98.1939 98.4073 98.3309 96.9991 98.1596 96.8895C96.5786 95.9039 94.5563 96.168 92.6924 96.1979C91.8457 96.2129 91.0176 96.4444 90.1982 96.6747C84.3033 98.3465 78.4089 100.023 72.5184 101.694C70.8122 102.176 69.1066 102.663 67.4323 103.259C62.9583 104.856 58.7776 107.252 55.1391 110.305C54.7671 110.615 54.3694 111.102 54.6062 111.523Z" fill="#02329E"/>
<path d="M87.3817 98.0976C88.7942 97.3681 90.3124 96.3672 90.5693 94.7995C83.871 94.9238 77.3218 96.7831 70.6424 97.3337C68.4734 97.5114 66.292 97.5551 64.1286 97.8108C61.8791 98.0774 59.6632 98.576 57.4624 99.1251C47.8411 101.526 38.4633 104.919 29.5345 109.235C27.1849 110.372 24.6763 111.773 23.7606 114.22C28.3293 114.688 32.914 113.795 37.4207 112.906C43.2716 111.752 49.1176 110.593 54.9685 109.439C57.0294 109.03 59.0952 108.625 61.1221 108.049C62.938 107.536 64.7107 106.888 66.4839 106.244C69.8335 105.025 73.1831 103.806 76.5321 102.582C80.212 101.243 83.8999 99.8977 87.3779 98.1025L87.3817 98.0976Z" fill="#CD280C"/>
<path d="M89.4342 95.2316C90.3499 94.9672 91.3071 94.6845 92.0038 94.0366C92.7006 93.3888 93.0566 92.2591 92.5357 91.4588C87.1378 93.7064 81.4466 95.2606 75.6567 96.0662C73.1161 96.4177 70.5575 96.6271 68.0392 97.1201C64.9316 97.7269 61.9257 98.7583 58.9057 99.7127C50.4221 102.394 41.7498 104.482 32.974 105.958C26.6262 107.022 20.1489 107.787 14.1747 110.182C12.8674 110.706 11.4313 111.491 11.137 112.866C15.0908 113.106 19.0479 112.646 22.9705 112.12C30.0838 111.16 37.1753 109.958 44.1336 108.187C46.8121 107.508 49.4663 106.74 52.1211 105.976L59.4982 103.85C65.8838 102.011 72.2736 100.172 78.6592 98.3332C82.2507 97.2979 85.8427 96.2669 89.4342 95.2316Z" fill="#CD280C"/>
<path d="M91.5316 90.8858C88.8751 91.5669 86.2106 92.2533 83.5098 92.7212C80.9461 93.1675 78.3575 93.4157 75.7645 93.6294C64.4345 94.553 53.0406 94.7279 41.6877 94.1541C41.5456 94.5526 41.5591 95.0058 41.7221 95.3963C43.8645 97.1902 46.9078 97.287 49.7024 97.284C64.7765 97.261 80.1523 96.6838 94.3345 91.5728C95.736 91.0678 97.2112 90.4528 98.0439 89.2192L91.5364 90.8896L91.5316 90.8858Z" fill="#02329E"/>
<path d="M40.6804 104.844C45.7625 104.426 50.8558 103.957 55.8446 102.903C59.1205 102.209 62.338 101.261 65.5517 100.317C74.5473 97.6716 83.5424 95.0221 92.5423 92.3765C93.1201 92.2073 93.8285 91.8598 93.7745 91.2586C72.8031 95.3593 51.6855 98.6825 30.4679 101.213C28.8388 101.406 27.1673 101.608 25.7107 102.37C26.7738 104.103 28.9701 104.731 30.9861 104.971C34.201 105.352 37.455 105.107 40.6798 104.84L40.6804 104.844Z" fill="#02329E"/>
<path d="M202.162 64.5353C200.171 61.6507 197.484 59.2477 194.4 57.5814C194.148 58.4311 189.012 57.6976 188.133 57.5943C180.314 56.6661 175.869 62.0257 168.176 63.7277C162.333 65.021 142.989 68.5664 137.363 70.5979C115.609 78.441 107.63 80.7871 89.1154 94.6463C88.476 95.1251 87.7768 95.9614 88.2394 96.6115C88.4788 96.9487 88.9316 97.0359 89.3369 97.094C91.1183 97.3458 92.9211 97.4549 94.7231 97.4198C94.3487 97.572 94.1054 98.0008 94.1689 98.3996C98.7088 99.9213 103.275 101.413 107.879 102.743C107.736 103.072 107.595 103.405 107.453 103.733C107.01 104.765 106.557 105.819 106.484 106.935C106.431 107.764 106.674 108.717 107.42 109.082C107.807 109.274 108.265 109.264 108.688 109.189C109.356 109.074 109.983 108.807 110.605 108.54C113.095 107.478 115.586 106.42 118.081 105.357C118.791 105.512 119.506 105.662 120.224 105.808C119.95 107.242 118.673 108.803 119.464 110.041C119.955 110.815 121.055 110.969 121.933 110.714C122.81 110.459 123.56 109.887 124.374 109.469C125.983 108.636 127.938 108.324 129.339 107.259C138.816 108.323 148.497 107.954 157.601 105.199C161.907 103.894 166.042 102.072 170.015 99.9741C174.993 97.3465 179.733 94.2854 184.46 91.2302C186.527 89.8975 188.605 88.5504 190.376 86.8526C191.781 85.5031 192.98 83.9519 194.374 82.5905C196.376 80.6406 198.76 79.1192 200.748 77.1623C202.735 75.201 204.368 72.6111 204.243 69.8188C204.158 67.9049 203.25 66.1169 202.158 64.5359L202.162 64.5353Z" fill="#CD280C"/>
<path d="M179.984 69.191C179.704 71.129 179.491 73.1154 179.869 75.0359C180.248 76.9564 181.302 78.8309 183.022 79.7728C182.677 79.9826 182.272 80.0994 181.864 80.0939C182.686 81.6829 184.201 82.8387 185.859 83.4997C187.521 84.1602 189.328 84.3651 191.117 84.4016C192.31 84.4259 193.519 84.3738 194.655 84.0203C196.945 83.3069 198.788 81.3114 199.314 78.9705C198.115 78.7938 197.067 77.8677 196.736 76.7023C197.076 76.5194 197.197 76.023 196.982 75.7047C197.209 75.6672 197.441 75.6336 197.668 75.5961C197.789 72.8515 197.159 70.0399 195.657 67.7408C194.155 65.4418 191.755 63.6891 189.051 63.1995C186.348 62.7099 183.386 63.5695 181.524 65.5935C181.063 66.0979 180.667 66.6684 180.416 67.3082C180.181 67.9108 180.079 68.5536 179.984 69.191Z" fill="white"/>
<path d="M192.665 84.3635C192.657 84.5482 192.661 84.7489 192.764 84.9065C192.86 85.0474 193.023 85.1231 193.18 85.1907C195.585 86.1861 198.453 85.9682 200.68 84.624C201.448 84.1596 202.202 83.4433 202.189 82.5483C202.176 81.7538 201.571 81.113 201.006 80.5545C199.912 79.481 198.771 78.3785 197.332 77.8518C197.001 77.7317 196.636 77.6422 196.305 77.7627C196.034 77.8626 195.831 78.0895 195.639 78.3061C194.901 79.1472 194.156 80.0024 193.616 80.9848C193.046 82.019 192.721 83.1842 192.669 84.363L192.665 84.3635Z" fill="#1C1924"/>
<path d="M197.122 75.2233C197.649 74.4745 198.274 73.7831 199.042 73.2794C199.797 72.7816 200.686 72.4812 201.587 72.4112C201.959 72.3816 202.337 72.3952 202.69 72.5212C203.272 72.7277 203.707 73.2282 203.97 73.7898C204.287 74.4671 204.371 75.2307 204.451 75.9729C204.688 78.1912 204.926 80.4268 204.677 82.6409C204.431 84.8545 203.654 87.0784 202.112 88.686C202.479 87.0256 201.993 85.2543 201.102 83.8054C200.206 82.357 198.929 81.1842 197.608 80.1089C197.16 79.7456 196.697 79.3753 196.424 78.8719C195.802 77.7214 196.373 76.2889 197.126 75.2184L197.122 75.2233Z" fill="#EDDDB4"/>
<path d="M191.457 70.8212C191.485 71.6312 190.654 72.2916 189.843 72.2716C189.127 72.2526 188.462 71.7987 188.108 71.1785C187.754 70.5584 187.697 69.7915 187.876 69.0996C188.266 68.9979 188.655 68.8962 189.045 68.7945C189.396 68.702 189.77 68.6111 190.12 68.7156C190.647 68.8721 190.947 69.4116 191.181 69.9114C191.318 70.2002 191.448 70.5031 191.462 70.8206L191.457 70.8212Z" fill="#1C1924"/>
<path d="M102.349 18.268C99.6081 19.2134 96.9835 20.459 94.3687 21.7122C89.3295 24.1331 84.2867 26.629 79.7847 29.9444C81.0031 31.107 82.7967 31.6285 84.4487 31.3061C83.3962 31.9421 82.4424 32.7361 81.6222 33.6532C82.4245 33.8756 83.2267 34.098 84.0289 34.3203C82.9917 34.3157 82.0646 35.3557 82.2204 36.3814C82.3761 37.4071 83.6043 38.1268 84.5656 37.7386C84.0013 37.9454 83.4085 38.169 83.0102 38.6173C82.6125 39.07 82.4843 39.821 82.9025 40.2581C83.1143 40.4806 83.4196 40.5776 83.7158 40.6715C84.6263 40.9545 85.5412 41.237 86.4522 41.5243C83.8562 42.7532 81.7367 44.9498 80.5957 47.5871C83.161 47.5693 85.7271 47.7307 88.2718 48.0698C86.8345 48.3956 85.4627 48.9975 84.2473 49.8334C85.1833 50.2138 86.1193 50.5942 87.0558 50.9789C86.0516 50.7165 84.8771 51.4947 84.8289 52.533C84.7807 53.5713 86.001 54.4713 86.9429 54.0331C86.0285 54.8965 85.0299 56.1686 85.6331 57.2734C85.782 57.552 86.0315 57.7961 86.0632 58.1157C86.1079 58.6087 85.6143 58.9597 85.3424 59.3702C84.7257 60.3054 85.3238 61.647 86.2843 62.2212C87.2447 62.7953 88.4273 62.8078 89.5463 62.8021C88.3483 63.3602 87.6811 64.866 88.0724 66.1287C88.4637 67.3915 89.8632 68.2557 91.166 68.0431C91.4771 68.4281 91.1608 69.006 90.7747 69.3085C90.3844 69.6114 89.8895 69.8489 89.7205 70.312C89.4277 71.1101 90.2979 71.8356 91.0804 72.1785C91.8586 72.522 92.815 72.9611 92.8613 73.8125C92.8773 74.1123 92.7685 74.4279 92.8867 74.706C93.0044 74.9798 93.3022 75.1216 93.5795 75.2396C94.4579 75.6142 95.3369 75.993 96.2195 76.3671C95.341 76.2331 94.8797 77.5686 95.4038 78.2897C95.923 79.007 96.8927 79.2039 97.7681 79.347C98.5853 79.48 99.4025 79.613 100.22 79.7459C100.607 80.4581 99.08 81.2152 99.5239 81.8896C99.6862 82.1359 100.024 82.1764 100.314 82.1921C101.495 82.2574 102.67 82.3189 103.851 82.3841C103.796 82.9509 103.74 83.5178 103.685 84.0846C105.081 83.952 106.481 83.8146 107.877 83.6821C108.115 83.6608 108.375 83.6411 108.572 83.7824C109.011 84.1031 108.677 84.7839 108.658 85.3286C108.627 86.0892 109.336 86.717 110.081 86.8678C110.827 87.0187 111.592 86.8126 112.323 86.6109C111.707 87.0956 111.352 87.8926 111.403 88.6736C112.356 88.597 113.308 88.5161 114.26 88.4396C113.844 88.7108 113.635 89.2709 113.769 89.7481C116.721 89.4979 119.614 88.577 122.172 87.0817C122.742 86.7472 123.343 86.3127 123.458 85.6639C123.529 85.2526 123.384 84.8378 123.234 84.4456C122.16 81.6858 120.593 79.115 119.787 76.2687C119.218 74.2542 119.044 72.1504 118.894 70.0655C117.78 54.5562 117.99 38.3504 124.662 24.3072C126.034 21.422 127.709 18.4725 127.547 15.2825C119.056 15.3794 110.389 15.503 102.363 18.2749L102.349 18.268Z" fill="#02329E"/>
<path d="M131.468 21.9474C131.224 19.2926 130.08 16.8127 128.956 14.3915C128.567 13.5572 128.064 12.6277 127.168 12.4216C126.262 12.2123 125.328 12.9208 125.042 13.8055C124.755 14.6859 124.988 15.6625 125.403 16.4936C124.845 15.8818 123.906 15.5105 123.166 15.8882C122.426 16.2659 122.315 17.5659 123.092 17.8615C121.831 17.9552 120.569 18.0445 119.308 18.1381C119.331 18.5289 119.51 18.9043 119.798 19.1742C116.831 18.8884 113.821 19.0585 110.903 19.6764C110.103 19.8475 109.112 20.3181 109.219 21.1313C109.269 21.5274 109.587 21.8284 109.887 22.0923C110.795 22.9049 111.707 23.7214 112.615 24.534C110.224 24.7222 107.857 25.1656 105.559 25.8494C104.927 26.0386 104.201 26.3533 104.082 27.0026C103.786 28.6365 107.354 28.6277 107.309 30.2866C105.846 30.5458 104.379 30.8097 102.912 31.0694C102.193 31.1995 101.267 31.5877 101.38 32.3083C101.448 32.7415 101.875 33.0068 102.264 33.2157C103.268 33.7538 104.272 34.2918 105.276 34.8298C104.062 34.9832 102.848 35.1365 101.634 35.2898C101.186 35.3464 100.698 35.4256 100.409 35.7726C100.173 36.0517 100.132 36.4506 100.169 36.8133C100.442 39.4951 103.947 40.474 105.364 42.7662C103.986 42.9009 102.626 43.2126 101.331 43.6955C100.713 43.9266 100.05 44.2553 99.8216 44.8702C99.4128 45.9629 100.579 46.9571 101.589 47.5425C100.618 47.9539 99.6463 48.3653 98.671 48.7815C98.1976 48.9813 97.671 49.2446 97.5414 49.7421C97.1285 51.3558 100.986 51.2841 100.761 52.9352C99.4345 53.199 98.0617 53.4817 96.9529 54.2604C95.8434 55.0347 95.0594 56.4459 95.4384 57.7496C95.866 59.2309 97.5048 59.9468 98.9528 60.4681C100.305 60.9578 101.657 61.4432 103.009 61.9329C102.079 61.6348 101.075 62.6539 101.249 63.6161C101.422 64.5739 102.524 65.1915 103.479 65.0008C102.098 65.1797 100.679 65.372 99.4497 66.0302C98.2207 66.6885 97.1947 67.9159 97.1916 69.3116C97.1926 69.6658 97.2664 70.0413 97.5127 70.2945C97.7434 70.5278 98.0782 70.6168 98.3937 70.6907C100.881 71.2645 103.452 71.4647 105.996 71.2833C106.123 71.9801 105.285 72.4053 104.638 72.6882C103.992 72.9754 103.31 73.7744 103.807 74.2803C104.8 74.8722 105.902 75.2842 107.036 75.4996C106.82 76.0387 106.443 76.515 105.969 76.8547C107.252 77.6593 108.795 78.0331 110.301 77.9041C109.976 78.9686 109.786 80.4098 110.767 80.9333C111.095 81.1105 111.486 81.1267 111.863 81.1316C114.165 81.1734 116.467 81.0488 118.75 80.7692C117.857 81.9055 116.504 82.6188 115.649 83.7852C114.795 84.9516 114.776 86.9835 116.127 87.4952C116.65 87.6916 117.233 87.6004 117.781 87.5007C120.811 86.9386 123.801 86.163 126.725 85.177C126.4 86.2415 126.208 87.3505 126.16 88.4631C127.811 88.0579 129.366 87.2797 130.678 86.2043C130.791 86.6536 130.905 87.1072 131.015 87.557C132.83 86.9734 134.509 85.961 135.876 84.6292C136.083 84.9836 136.289 85.3338 136.5 85.6877C137.944 83.8956 139.388 82.0993 140.837 80.3067C141.143 79.9268 141.463 79.5103 141.484 79.0221C141.506 78.5032 141.18 78.037 140.878 77.6159C135.746 70.4347 132.777 61.8605 131.452 53.1356C130.123 44.4112 130.382 35.5126 131.267 26.7316C131.425 25.1457 131.609 23.5523 131.461 21.9657L131.468 21.9474Z" fill="#F6D204"/>
<path d="M120.389 45.0152C120.241 45.3706 119.857 45.5503 119.51 45.7122C117.939 46.4355 116.466 47.3739 115.151 48.4935C114.226 49.2795 113.318 50.2909 113.322 51.5063C113.328 52.8352 114.414 53.8791 115.417 54.7541C114.288 55.8282 112.752 56.4115 111.649 57.5131C110.546 58.6147 110.081 60.6811 111.324 61.6219C111.56 61.7977 111.843 61.9238 112.009 62.1652C112.399 62.7197 111.971 63.456 111.814 64.1145C111.44 65.6925 113.175 67.3411 114.732 66.8951C114.736 68.9022 117.21 70.4443 119.02 69.5685C118.491 70.44 119.08 71.6428 119.973 72.1336C120.866 72.6244 121.944 72.6021 122.963 72.5653C121.827 72.9187 121.896 74.7514 122.871 75.4418C123.842 76.1327 125.162 75.9835 126.322 75.7189C125.912 76.1774 126.179 76.9748 126.704 77.289C127.234 77.6026 127.902 77.5576 128.501 77.4207C129.619 77.1657 130.673 76.6391 131.546 75.899C132.091 77.2035 131.106 79.1387 132.296 79.9026C132.939 80.3156 133.793 80.011 134.468 79.6414C135.569 79.0431 136.586 78.298 137.491 77.4313C136.882 78.7373 138.424 80.2091 139.86 80.1195C141.296 80.0299 142.473 78.9934 143.526 78.0119C143.771 79.0832 144.77 79.9324 145.868 79.9994C146.961 80.0669 148.06 79.3507 148.442 78.3184C143.623 75.1128 140.879 69.6639 138.35 64.4547C137.529 62.7694 136.707 61.0798 136.149 59.2914C133.826 51.8736 136.252 43.7597 134.934 36.0967C134.659 34.5044 134.225 32.9365 134.035 31.3333C133.682 28.3643 134.173 25.3586 133.998 22.3759C133.954 21.6466 133.83 20.8442 133.269 20.3815C132.707 19.9188 131.607 20.1759 131.598 20.9031C131.449 20.2439 131.305 19.5842 131.156 18.925C130.439 19.7548 128.969 18.7857 128.002 19.3058C127.421 19.6198 127.238 20.3515 127.132 21.0035C126.83 22.8743 126.68 24.7653 126.687 26.6583C125.844 26.0474 124.595 26.9926 124.52 28.0299C124.446 29.0672 125.093 30.0045 125.711 30.845C124.741 31.1643 123.56 31.7859 123.68 32.803C123.744 33.311 124.131 33.7083 124.396 34.1429C125.268 35.581 124.75 37.5054 123.744 38.8528C122.464 40.5628 120.356 42.0188 120.446 44.155C120.456 44.4424 120.512 44.7416 120.401 45.0092L120.389 45.0152Z" fill="#A5200E"/>
<path d="M89.698 26.4617C92.6602 24.4954 96.0865 23.1573 98.6039 20.648C96.8012 23.4825 94.0766 25.5981 91.9032 28.1645C89.7298 30.731 88.0645 34.1693 89.0186 37.3948C93.5182 35.9649 96.1132 31.4382 99.0786 27.7657C101.953 24.2053 105.514 21.1968 109.509 18.9602C108.028 21.5354 106.202 23.9092 104.792 26.528C103.382 29.1467 102.388 32.1154 102.765 35.0639C102.796 35.3136 102.847 35.5741 103.011 35.7633C103.419 36.2235 104.175 35.9443 104.683 35.6003C110.922 31.3612 112.409 21.905 119.187 18.5953C118.015 21.5819 117.014 24.6302 116.189 27.7304C117.819 27.2272 119.103 25.9365 120.02 24.4998C120.936 23.0588 121.547 21.4552 122.298 19.9213C123.677 17.0964 125.531 14.9072 127.777 12.7121C124.045 10.1042 119.115 9.95704 114.58 10.3504C111.002 10.658 107.41 10.9936 103.91 11.8205C96.3801 13.6025 89.5887 17.5963 82.9852 21.6233C79.1882 23.9399 75.409 26.2936 71.7317 28.7963C68.3162 31.1216 64.7802 33.8776 63.6641 37.8545C69.9171 35.8663 75.8183 32.7897 81.0267 28.799C77.6549 30.7426 74.405 32.9595 71.6867 35.7478C70.7766 36.6807 69.8744 37.8838 70.136 39.1585C71.4744 39.3657 72.7707 38.6858 73.9518 38.0293C76.1544 36.8019 78.3655 35.5735 80.3944 34.0795C83.6198 31.7038 86.3578 28.6899 89.6954 26.4751L89.698 26.4617Z" fill="#062A5E"/>
</svg>
