<svg width="139" height="98" viewBox="0 0 139 98" fill="none" xmlns="http://www.w3.org/2000/svg">
<path d="M116.828 86.6826L99.041 73.6049L91.2659 51.455C90.2114 48.0189 91.0295 45.2252 93.7323 42.8617C96.72 40.2437 100.229 38.3287 102.677 39.7953C107.131 42.4678 104.398 70.3748 104.398 70.3748L120.221 83.6405L116.828 86.6948V86.6826Z" fill="#846045"/>
<path d="M116.84 86.6766L124.687 88.5371C124.687 88.5371 125.639 83.9919 121.457 83.5435C117.276 83.095 116.84 86.6766 116.84 86.6766Z" fill="#846045"/>
<path d="M43.2936 36.2986L36.4638 50.8248L25.8465 46.613L11.8112 69.3628L14.2292 76.3198C14.2292 76.3198 19.0833 75.3987 17.2289 69.1992L26.5009 56.6607C26.5009 56.6607 46.1601 68.2901 50.0749 66.8478C53.9898 65.4055 62.4376 46.2918 62.4376 46.2918L61.2922 32.1656C60.7226 29.4749 58.5531 27.869 55.7654 27.3357C49.8749 26.2085 44.2632 30.3657 43.2936 36.2865V36.2986Z" fill="#846045"/>
<path d="M96.8714 17.7788L91.999 24.9722C94.108 37.4864 109.24 36.7107 109.24 36.7107L114.597 27.1417C126.384 8.06437 108.913 -0.668289 96.8714 17.7788Z" fill="#DB995D"/>
<path d="M52.4324 25.9236C28.9251 22.5118 10.3507 43.3405 0 42.7102C0 42.7102 11.387 51.1096 24.992 43.395C38.5971 35.6805 47.4388 27.6023 55.8382 27.4811C64.2375 27.366 52.4324 25.9176 52.4324 25.9176V25.9236Z" fill="#725A47"/>
<path d="M24.9981 43.4011C38.6031 35.6866 47.4448 27.6084 55.8442 27.4872C57.2259 27.469 58.0562 27.4144 58.4864 27.3357C57.3592 27.1357 55.9896 27.0145 54.3473 26.9902C20.2287 26.463 30.5916 50.8975 0.012085 42.7103C0.012085 42.7103 11.3991 51.1096 25.0041 43.3951L24.9981 43.4011Z" fill="#594537"/>
<path d="M111.228 35.0624C102.204 33.4261 92.5324 25.6267 92.5324 25.6267L73.2368 27.1357L58.3774 24.6935C57.838 24.5601 57.2805 24.451 56.7108 24.3965C56.6381 24.3904 56.5714 24.3965 56.5048 24.3844L56.3412 24.3601C56.2866 24.3601 56.2321 24.3662 56.1775 24.3723C49.7356 24.0147 44.0875 28.778 43.4391 35.2623C42.9543 40.1226 45.4147 44.5889 49.3659 46.916C55.0079 51.2369 69.1281 59.9877 88.6842 57.5697C95.8897 56.6789 100.811 54.3094 104.174 51.3641C107.786 49.2552 110.367 45.5161 110.816 41.0377C110.882 40.371 110.895 39.7166 110.87 39.0681C111.137 37.541 111.222 36.1714 111.234 35.0684L111.228 35.0624Z" fill="#DB995D"/>
<path d="M96.8047 28.6628C94.2049 26.9721 92.5323 25.6267 92.5323 25.6267L91.3506 25.7176C98.2046 37.4198 105.004 41.8316 110.428 43.1405C110.61 42.4557 110.743 41.7528 110.816 41.0316C110.882 40.365 110.895 39.7105 110.87 39.0621C111.137 37.5349 111.222 36.1653 111.234 35.0624C106.555 34.2139 101.701 31.705 98.1137 29.4931L97.441 29.2992L96.8108 28.6689L96.8047 28.6628Z" fill="#AA774D"/>
<path d="M103.016 46.4918C90.7931 54.3215 70.2371 53.7761 60.147 45.3464C57.1593 42.8496 54.1777 40.6013 51.5173 39.0257C47.6631 36.7471 43.7725 41.8739 46.9419 45.0373C47.6631 45.7524 48.4751 46.3827 49.3599 46.9099C55.0019 51.2308 69.1221 59.9816 88.6781 57.5636C95.8837 56.6728 100.804 54.3033 104.168 51.3581C104.75 51.0187 105.307 50.6369 105.828 50.2127C108.095 48.3946 105.568 44.8798 103.113 46.4312C103.083 46.4493 103.047 46.4736 103.016 46.4918Z" fill="#AA774D"/>
<path d="M43.2452 40.5104L42.1059 56.5213L30.6885 56.4183L25.7859 82.6951L30.5492 88.3128C30.5492 88.3128 34.7428 85.707 30.7855 80.5922L34.9185 65.557C34.9185 65.557 57.4441 69.3264 60.5772 66.5751C63.7103 63.8238 64.7102 42.9466 64.7102 42.9466L58.5531 30.1839C57.0502 27.8811 54.4504 27.166 51.6567 27.669C45.7541 28.7356 42.015 34.6381 43.2391 40.5104H43.2452Z" fill="#DB995D"/>
<path d="M111.579 33.8806H110.925V37.947H111.579V33.8806Z" fill="#FFCD40"/>
<path d="M113.494 39.159C113.494 40.6134 112.319 41.7891 110.864 41.7891C109.41 41.7891 108.234 40.6134 108.234 39.159C108.234 37.7045 109.41 36.5289 110.864 36.5289C112.319 36.5289 113.494 37.7045 113.494 39.159Z" fill="#D17507"/>
<path d="M111.483 41.7891C112.811 41.7891 113.888 40.6115 113.888 39.159C113.888 37.7064 112.811 36.5289 111.483 36.5289C110.154 36.5289 109.077 37.7064 109.077 39.159C109.077 40.6115 110.154 41.7891 111.483 41.7891Z" fill="#FFCD40"/>
<path d="M111.628 35.6017C99.144 34.5775 92.6172 28.1356 90.8173 26.063C90.5204 25.7236 90.5507 25.2085 90.884 24.8995L92.9141 23.0329C93.2535 22.7239 93.7747 22.7421 94.0898 23.0693C95.823 24.8874 101.677 30.1536 111.931 31.0323C112.385 31.0687 112.737 31.4626 112.707 31.9171L112.531 34.8139C112.501 35.2805 112.094 35.6381 111.628 35.6017Z" fill="#323244"/>
<path d="M94.8231 25.8085C94.7867 26.4509 94.2292 26.9417 93.5868 26.9054C92.9444 26.869 92.4536 26.3115 92.4899 25.6691C92.5263 25.0267 93.0838 24.5358 93.7262 24.5722C94.3686 24.6086 94.8595 25.1661 94.8231 25.8085Z" fill="#D0E7F4"/>
<path d="M93.6656 25.7418L92.496 25.8327C92.5384 26.4024 92.9929 26.869 93.5807 26.9054C93.7868 26.9175 93.9807 26.8751 94.1504 26.7902C93.8777 26.2024 93.6595 25.7418 93.6595 25.7418H93.6656Z" fill="#A4C3D8"/>
<path d="M93.6656 25.7418L94.811 25.8509C94.811 25.8509 94.817 25.8206 94.817 25.8085C94.8534 25.1661 94.3686 24.6086 93.7202 24.5722C93.5808 24.5661 93.4475 24.5843 93.3202 24.6207L93.6596 25.7418H93.6656Z" fill="#EAF1F4"/>
<path d="M98.3319 28.3598C98.2955 29.0022 97.738 29.4931 97.0956 29.4567C96.4532 29.4203 95.9624 28.8628 95.9987 28.2204C96.0351 27.5781 96.5926 27.0872 97.235 27.1235C97.8774 27.1599 98.3682 27.7174 98.3319 28.3598Z" fill="#D0E7F4"/>
<path d="M97.1744 28.2932L96.0048 28.3841C96.0472 28.9537 96.5017 29.4203 97.0895 29.4567C97.2956 29.4688 97.4895 29.4264 97.6592 29.3415C97.3865 28.7537 97.1683 28.2932 97.1683 28.2932H97.1744Z" fill="#A4C3D8"/>
<path d="M97.1744 28.2931L98.3198 28.4022C98.3198 28.4022 98.3258 28.3719 98.3258 28.3598C98.3622 27.7174 97.8774 27.1599 97.229 27.1235C97.0896 27.1175 96.9562 27.1357 96.829 27.172L97.1683 28.2931H97.1744Z" fill="#EAF1F4"/>
<path d="M102.574 30.6628C102.58 31.3052 102.065 31.8384 101.423 31.8445C100.78 31.8506 100.247 31.3355 100.241 30.6931C100.235 30.0507 100.75 29.5174 101.392 29.5113C102.035 29.5053 102.568 30.0204 102.574 30.6628Z" fill="#D0E7F4"/>
<path d="M101.417 30.6808L100.259 30.8566C100.344 31.4202 100.835 31.8565 101.423 31.8444C101.629 31.8444 101.816 31.7838 101.98 31.6868C101.665 31.1232 101.417 30.6808 101.417 30.6808Z" fill="#A4C3D8"/>
<path d="M101.417 30.6809L102.568 30.7051C102.568 30.7051 102.568 30.6748 102.568 30.6627C102.562 30.0203 102.029 29.4991 101.386 29.5113C101.247 29.5113 101.114 29.5416 100.992 29.59L101.41 30.6809H101.417Z" fill="#EAF1F4"/>
<path d="M107.149 32.3232C107.155 32.9656 106.64 33.4989 105.998 33.5049C105.356 33.511 104.822 32.9959 104.816 32.3535C104.81 31.7111 105.325 31.1779 105.968 31.1718C106.61 31.1657 107.143 31.6809 107.149 32.3232Z" fill="#D0E7F4"/>
<path d="M105.992 32.3413L104.834 32.5171C104.919 33.0807 105.41 33.517 105.998 33.5048C106.204 33.5048 106.392 33.4443 106.555 33.3473C106.24 32.7837 105.992 32.3413 105.992 32.3413Z" fill="#A4C3D8"/>
<path d="M105.992 32.3413L107.143 32.3656C107.143 32.3656 107.143 32.3353 107.143 32.3231C107.137 31.6808 106.604 31.1596 105.962 31.1717C105.822 31.1717 105.689 31.202 105.568 31.2505L105.986 32.3413H105.992Z" fill="#EAF1F4"/>
<path d="M111.549 32.9837C111.664 33.62 111.246 34.226 110.61 34.3412C109.973 34.4563 109.367 34.0382 109.252 33.4019C109.137 32.7655 109.555 32.1595 110.192 32.0444C110.828 31.9292 111.434 32.3474 111.549 32.9837Z" fill="#D0E7F4"/>
<path d="M110.41 33.1898L109.295 33.5534C109.476 34.0988 110.028 34.4382 110.604 34.3351C110.804 34.2988 110.979 34.2079 111.131 34.0867C110.731 33.5837 110.41 33.1898 110.41 33.1898Z" fill="#A4C3D8"/>
<path d="M110.41 33.1897L111.549 33.0261C111.549 33.0261 111.549 32.9958 111.549 32.9837C111.434 32.3474 110.828 31.9292 110.192 32.0444C110.052 32.0686 109.931 32.1232 109.816 32.1898L110.41 33.1958V33.1897Z" fill="#EAF1F4"/>
<path d="M138.238 13.064L128.911 10.3854C127.712 10.04 126.687 9.24612 126.063 8.16136L125.136 6.56147C125.021 6.1312 124.16 5.04038 123.766 4.82828C123.766 4.82828 118.015 2.22242 112.901 2.82237C107.786 3.42233 105.065 10.3976 105.065 10.3976L102.962 16.9122C105.568 21.2695 111.931 24.6449 121.512 24.3238C121.512 24.3238 129.305 23.4026 133.541 22.4997C137.784 21.6028 138.244 13.064 138.244 13.064H138.238Z" fill="#DB995D"/>
<path d="M115.579 5.25856C116.27 4.34348 115.622 3.24659 114.506 2.96782C105.774 0.810412 95.823 -0.534939 94.411 0.204399C92.5263 1.19826 84.4118 6.37363 85.6602 8.27045C86.9025 10.1673 99.544 15.7244 103.804 12.258C106.453 10.1067 114.016 7.33718 115.579 5.25249V5.25856Z" fill="#725A47"/>
<path d="M121.282 13.4094C119.924 13.5064 118.736 12.4883 118.64 11.1247L118.621 10.8642L123.548 10.5005L123.566 10.7611C123.663 12.1186 122.645 13.3064 121.282 13.4034V13.4094Z" fill="#9B7454"/>
<path d="M118.948 17.4091C118.948 17.4091 119.706 15.5487 121.397 17.0092L120.651 17.1304C121.463 19.1484 123.681 18.809 123.778 18.7969L123.894 18.7787L123.991 18.8454C126.815 20.8634 130.481 21.4331 133.329 20.2938C135.541 19.409 137.008 17.6091 137.474 15.2275L138.026 15.3366C137.529 17.9182 135.935 19.8635 133.541 20.821C132.717 21.1482 131.832 21.3422 130.917 21.4088C128.505 21.5846 125.906 20.8695 123.754 19.3665C123.203 19.4211 120.918 19.4938 120.088 17.2273L118.955 17.4091H118.948Z" fill="#725A47"/>
<path d="M122.688 10.4885C122.754 11.3611 122.094 12.1247 121.221 12.1853C120.348 12.252 119.585 11.5914 119.524 10.7188C119.458 9.8461 120.118 9.08251 120.991 9.02191C121.864 8.95525 122.627 9.61581 122.688 10.4885Z" fill="#323244"/>
<path d="M121.294 6.29482C121.633 7.09476 120.997 8.13106 119.876 8.61587C118.749 9.09462 117.561 8.83402 117.221 8.03408C116.882 7.23414 117.518 6.19786 118.64 5.71305C119.767 5.2343 120.954 5.49488 121.294 6.29482Z" fill="#EABA86"/>
<path d="M135.117 12.1671C135.893 14.8699 137.323 15.5002 138.117 15.2517C138.917 15.0033 139.244 13.1004 138.802 12.8337C138.359 12.5671 136.899 12.2944 135.117 12.1611V12.1671Z" fill="#323244"/>
<path d="M127.705 82.6527L107.386 74.023L94.7201 54.2609C92.9021 51.1642 93.0536 48.2492 95.1383 45.3282C97.4472 42.0921 100.417 39.4196 103.138 40.2801C108.089 41.8558 111.858 69.6355 111.858 69.6355L130.311 78.8954L127.712 82.6466L127.705 82.6527Z" fill="#DB995D"/>
<path d="M127.724 82.6466H135.79C135.79 82.6466 135.668 78.0046 131.499 78.5318C127.33 79.059 127.724 82.6466 127.724 82.6466Z" fill="#DB995D"/>
<path d="M128.275 93.5371H17.5745V97.1065H128.275V93.5371Z" fill="#79919B"/>
</svg>
